name C:\Users\u0101727\Documents\MyRepositories\upper-imu-dc\Results\main_tracking\Case_42\FLX01_angularVelocities_bodyFrame.mot
datacolumns 4
datarows 129
range 3.51000000 4.79000000
endheader 
time	radius_imu_x	radius_imu_y	radius_imu_z	
          3.51000000	          0.02945836	          0.09343806	          0.04338711	
          3.52000000	          0.03186680	          0.09085870	          0.04556154	
          3.53000000	          0.03425311	          0.08831107	          0.04761741	
          3.54000000	          0.03659795	          0.08596710	          0.04960336	
          3.55000000	          0.03888876	          0.08396984	          0.05157290	
          3.56000000	          0.04112283	          0.08240318	          0.05358433	
          3.57000000	          0.04330924	          0.08126848	          0.05570022	
          3.58000000	          0.04546914	          0.08047225	          0.05798636	
          3.59000000	          0.04763457	          0.07982678	          0.06051063	
          3.60000000	          0.04984600	          0.07906404	          0.06334193	
          3.61000000	          0.05214930	          0.07786120	          0.06654950	
          3.62000000	          0.05459247	          0.07587343	          0.07020234	
          3.63000000	          0.05722242	          0.07276809	          0.07436876	
          3.64000000	          0.06008207	          0.06825489	          0.07911560	
          3.65000000	          0.06320767	          0.06210832	          0.08450710	
          3.66000000	          0.06662655	          0.05418113	          0.09060347	
          3.67000000	          0.07035525	          0.04440945	          0.09745907	
          3.68000000	          0.07439811	          0.03281220	          0.10512057	
          3.69000000	          0.07874644	          0.01948649	          0.11362540	
          3.70000000	          0.08337832	          0.00459986	          0.12300042	
          3.71000000	          0.08825901	         -0.01161989	          0.13326114	
          3.72000000	          0.09334247	         -0.02889569	          0.14441137	
          3.73000000	          0.09857366	         -0.04691178	          0.15644349	
          3.74000000	          0.10389143	         -0.06532520	          0.16933913	
          3.75000000	          0.10923138	         -0.08378105	          0.18307019	
          3.76000000	          0.11452856	         -0.10193324	          0.19760006	
          3.77000000	          0.11972010	         -0.11946800	          0.21288537	
          3.78000000	          0.12474821	         -0.13612406	          0.22887865	
          3.79000000	          0.12956361	         -0.15170345	          0.24553204	
          3.80000000	          0.13412924	         -0.16607177	          0.26280156	
          3.81000000	          0.13842367	         -0.17915176	          0.28065072	
          3.82000000	          0.14244366	         -0.19091579	          0.29905268	
          3.83000000	          0.14620561	         -0.20138161	          0.31799047	
          3.84000000	          0.14974571	         -0.21061228	          0.33745557	
          3.85000000	          0.15311846	         -0.21871684	          0.35744540	
          3.86000000	          0.15639347	         -0.22584636	          0.37796002	
          3.87000000	          0.15965075	         -0.23218322	          0.39899871	
          3.88000000	          0.16297522	         -0.23792568	          0.42055657	
          3.89000000	          0.16645160	         -0.24327137	          0.44262194	
          3.90000000	          0.17016022	         -0.24840290	          0.46517461	
          3.91000000	          0.17417428	         -0.25347852	          0.48818503	
          3.92000000	          0.17855849	         -0.25863088	          0.51161424	
          3.93000000	          0.18336915	         -0.26397406	          0.53541437	
          3.94000000	          0.18865536	         -0.26961465	          0.55952996	
          3.95000000	          0.19446069	         -0.27566033	          0.58389980	
          3.96000000	          0.20082490	         -0.28222108	          0.60845893	
          3.97000000	          0.20778520	         -0.28940079	          0.63314014	
          3.98000000	          0.21537706	         -0.29728044	          0.65787484	
          3.99000000	          0.22363468	         -0.30589785	          0.68259353	
          4.00000000	          0.23259113	         -0.31523100	          0.70722585	
          4.01000000	          0.24227797	         -0.32519167	          0.73170026	
          4.02000000	          0.25272462	         -0.33563236	          0.75594358	
          4.03000000	          0.26395751	         -0.34636615	          0.77988029	
          4.04000000	          0.27599934	         -0.35719670	          0.80343197	
          4.05000000	          0.28886799	         -0.36795516	          0.82651676	
          4.06000000	          0.30257556	         -0.37853938	          0.84904895	
          4.07000000	          0.31712746	         -0.38894846	          0.87093918	
          4.08000000	          0.33252215	         -0.39930393	          0.89209551	
          4.09000000	          0.34875165	         -0.40985072	          0.91242575	
          4.10000000	          0.36580273	         -0.42093579	          0.93184063	
          4.11000000	          0.38365842	         -0.43296657	          0.95025750	
          4.12000000	          0.40229906	         -0.44635574	          0.96760362	
          4.13000000	          0.42170242	         -0.46146265	          0.98381838	
          4.14000000	          0.44184293	         -0.47854288	          0.99885408	
          4.15000000	          0.46269027	         -0.49771300	          1.01267552	
          4.16000000	          0.48420763	         -0.51892968	          1.02525873	
          4.17000000	          0.50634926	         -0.54197734	          1.03658931	
          4.18000000	          0.52905742	         -0.56645950	          1.04666075	
          4.19000000	          0.55225909	         -0.59179607	          1.05547320	
          4.20000000	          0.57586338	         -0.61723445	          1.06303283	
          4.21000000	          0.59976080	         -0.64188095	          1.06935226	
          4.22000000	          0.62382489	         -0.66475219	          1.07445204	
          4.23000000	          0.64791676	         -0.68484189	          1.07836324	
          4.24000000	          0.67189255	         -0.70119856	          1.08113072	
          4.25000000	          0.69561433	         -0.71301421	          1.08281650	
          4.26000000	          0.71896370	         -0.71972214	          1.08350243	
          4.27000000	          0.74185600	         -0.72109012	          1.08329082	
          4.28000000	          0.76425114	         -0.71728116	          1.08230216	
          4.29000000	          0.78615821	         -0.70885962	          1.08066948	
          4.30000000	          0.80763380	         -0.69674711	          1.07853036	
          4.31000000	          0.82877601	         -0.68215056	          1.07601856	
          4.32000000	          0.84971573	         -0.66647486	          1.07325609	
          4.33000000	          0.87060444	         -0.65121041	          1.07034609	
          4.34000000	          0.89159776	         -0.63778490	          1.06736626	
          4.35000000	          0.91283605	         -0.62739502	          1.06436358	
          4.36000000	          0.93442599	         -0.62086098	          1.06135145	
          4.37000000	          0.95642796	         -0.61854669	          1.05831061	
          4.38000000	          0.97885270	         -0.62036546	          1.05519415	
          4.39000000	          1.00166789	         -0.62586397	          1.05193582	
          4.40000000	          1.02481264	         -0.63435682	          1.04846001	
          4.41000000	          1.04821576	         -0.64506891	          1.04469108	
          4.42000000	          1.07181186	         -0.65723593	          1.04055977	
          4.43000000	          1.09555036	         -0.67013028	          1.03600577	
          4.44000000	          1.11939663	         -0.68302571	          1.03097702	
          4.45000000	          1.14332913	         -0.69515338	          1.02542811	
          4.46000000	          1.16733751	         -0.70570277	          1.01931953	
          4.47000000	          1.19142411	         -0.71389141	          1.01261811	
          4.48000000	          1.21560881	         -0.71909327	          1.00529768	
          4.49000000	          1.23993474	         -0.72098478	          0.99733833	
          4.50000000	          1.26447096	         -0.71964681	          0.98872271	
          4.51000000	          1.28930859	         -0.71557253	          0.97942875	
          4.52000000	          1.31455042	         -0.70957949	          0.96942019	
          4.53000000	          1.34029710	         -0.70266712	          0.95863726	
          4.54000000	          1.36663306	         -0.69586547	          0.94698941	
          4.55000000	          1.39361454	         -0.69010673	          0.93435101	
          4.56000000	          1.42126202	         -0.68614042	          0.92056075	
          4.57000000	          1.44955870	         -0.68449559	          0.90542441	
          4.58000000	          1.47845346	         -0.68546707	          0.88872014	
          4.59000000	          1.50786542	         -0.68909903	          0.87020479	
          4.60000000	          1.53768873	         -0.69516769	          0.84962106	
          4.61000000	          1.56779874	         -0.70319019	          0.82670574	
          4.62000000	          1.59806162	         -0.71248012	          0.80119931	
          4.63000000	          1.62834713	         -0.72224033	          0.77285601	
          4.64000000	          1.65854244	         -0.73165635	          0.74145283	
          4.65000000	          1.68856312	         -0.73995520	          0.70679608	
          4.66000000	          1.71835953	         -0.74642659	          0.66872546	
          4.67000000	          1.74791840	         -0.75043155	          0.62711597	
          4.68000000	          1.77726033	         -0.75142182	          0.58187822	
          4.69000000	          1.80643363	         -0.74897162	          0.53295711	
          4.70000000	          1.83550514	         -0.74280565	          0.48032903	
          4.71000000	          1.86454946	         -0.73280716	          0.42399836	
          4.72000000	          1.89363806	         -0.71900679	          0.36399402	
          4.73000000	          1.92283053	         -0.70157036	          0.30036738	
          4.74000000	          1.95216866	         -0.68080182	          0.23319136	
          4.75000000	          1.98167299	         -0.65715893	          0.16256036	
          4.76000000	          2.01134046	         -0.63126435	          0.08859018	
          4.77000000	          2.04114306	         -0.60389838	          0.01141752	
          4.78000000	          2.07102801	         -0.57597324	         -0.06880037	
          4.79000000	          2.10092035	         -0.54849827	         -0.15188581	
